<svg xmlns="http://www.w3.org/2000/svg" viewBox="0 0 285.01 846.87"><defs><style>.a{fill:#fff;}.b{fill:#2d2d2d;opacity:0.5;}</style></defs><polygon points="86.25 416.05 112.46 416.05 112.46 58 86.25 44.41 86.25 416.05"/><path d="M0,34.67V416.05H26.2V32.44a8.47,8.47,0,1,1,16.93,0V416.05h26.2V35.64L13.91,6.92A34.62,34.62,0,0,0,0,34.67Z"/><path d="M172.3,385.85a8.47,8.47,0,0,1-16.93,0V80.24l-26.2-13.58v317a34.66,34.66,0,1,0,69.32,0v-281L172.3,89Z"/><path d="M258.8,188.67a8.46,8.46,0,0,1-16.92,0V125.08l-26.2-13.58v76.28a34.51,34.51,0,0,0,7.57,21.57,34.48,34.48,0,0,0-7.57,21.56V416.05h26.2V229.57a8.46,8.46,0,0,1,16.92,0V416.05H285V230.91a34.37,34.37,0,0,0-7.57-21.56A34.46,34.46,0,0,0,285,187.78V147.43L258.8,133.85Z"/><polygon points="30.82 650.7 50.72 650.7 50.72 820.54 81.53 804.56 81.53 433 50.72 433 50.72 626.86 30.82 626.86 30.82 433 0 433 0 844.5 4.48 844.5 30.82 830.85 30.82 650.7"/><polygon points="183.27 432.99 152.45 432.99 152.45 767.8 183.26 751.83 183.27 432.99"/><polygon points="132.55 432.99 101.74 432.99 101.74 794.09 132.55 778.12 132.55 432.99"/><path d="M234.29,650.66h10c5.47,0,9.93,4.32,9.93,9v55.45l30.81-16V659.61a31.18,31.18,0,0,0-8.89-21.44A31.16,31.16,0,0,0,285,616.73V467.43c0-19-18.28-34.47-40.76-34.47H203.47v308.4l30.82-16Zm0-193.85h10c5.48,0,9.95,3.77,9.95,8.41V618.41c0,4.65-4.46,8.41-9.93,8.42h-10Z"/><path class="a" d="M77.79,0h0A34.48,34.48,0,0,0,56.23,7.57a34.54,34.54,0,0,0-42.32-.65L69.33,35.64v-3.2a8.46,8.46,0,1,1,16.92,0v12L112.46,58V34.67A34.71,34.71,0,0,0,77.79,0Z"/><polygon class="a" points="155.37 2.19 129.17 2.19 129.17 66.66 155.37 80.24 155.37 2.19"/><polygon class="a" points="172.3 2.19 172.3 89.01 198.5 102.59 198.5 2.19 172.3 2.19"/><polygon class="a" points="258.8 2.19 258.8 133.85 285 147.44 285 2.19 258.8 2.19"/><polygon class="a" points="241.88 2.19 215.68 2.19 215.68 111.5 241.88 125.08 241.88 2.19"/><path class="b" d="M77.79,0h0A34.48,34.48,0,0,0,56.23,7.57a34.54,34.54,0,0,0-42.32-.65L69.33,35.64v-3.2a8.46,8.46,0,1,1,16.92,0v12L112.46,58V34.67A34.71,34.71,0,0,0,77.79,0Z"/><polygon class="b" points="155.37 2.19 129.17 2.19 129.17 66.66 155.37 80.24 155.37 2.19"/><polygon class="b" points="172.3 2.19 172.3 89.01 198.5 102.59 198.5 2.19 172.3 2.19"/><polygon class="b" points="258.8 2.19 258.8 133.85 285 147.44 285 2.19 258.8 2.19"/><polygon class="b" points="241.88 2.19 215.68 2.19 215.68 111.5 241.88 125.08 241.88 2.19"/><polygon class="a" points="50.72 844.5 81.53 844.5 81.53 804.56 50.72 820.54 50.72 844.5"/><polygon class="a" points="30.82 830.85 4.48 844.5 30.82 844.5 30.82 830.85"/><path class="a" d="M142.5,846.87c22.48,0,40.76-15.6,40.76-34.61V751.83l-30.81,16v46.67c0,4.65-4.46,8.42-9.95,8.42s-9.95-3.77-9.95-8.42V778.12l-30.81,16v18.17C101.74,831.27,120,846.87,142.5,846.87Z"/><path class="a" d="M244.24,844.5C266.72,844.5,285,829,285,810V699.1l-30.81,16v97.19c0,4.64-4.47,8.41-9.95,8.41h-10V725.39l-30.82,16V844.5Z"/><polygon class="b" points="50.72 844.5 81.53 844.5 81.53 804.56 50.72 820.54 50.72 844.5"/><polygon class="b" points="30.82 830.85 4.48 844.5 30.82 844.5 30.82 830.85"/><path class="b" d="M142.5,846.87c22.48,0,40.76-15.6,40.76-34.61V751.83l-30.81,16v46.67c0,4.65-4.46,8.42-9.95,8.42s-9.95-3.77-9.95-8.42V778.12l-30.81,16v18.17C101.74,831.27,120,846.87,142.5,846.87Z"/><path class="b" d="M244.24,844.5C266.72,844.5,285,829,285,810V699.1l-30.81,16v97.19c0,4.64-4.47,8.41-9.95,8.41h-10V725.39l-30.82,16V844.5Z"/></svg>